<mxfile host="Electron" modified="2023-05-04T18:58:55.279Z" agent="Mozilla/5.0 (Windows NT 10.0; Win64; x64) AppleWebKit/537.36 (KHTML, like Gecko) draw.io/21.2.1 Chrome/112.0.5615.87 Electron/24.1.2 Safari/537.36" etag="48a5seHAxERmaWqRh8z_" version="21.2.1" type="device">
  <diagram id="MtypJzg6Tb8qFFEwFL70" name="1 oldal">
    <mxGraphModel dx="2059" dy="1889" grid="1" gridSize="10" guides="1" tooltips="1" connect="1" arrows="1" fold="1" page="1" pageScale="1" pageWidth="827" pageHeight="1169" math="0" shadow="0">
      <root>
        <mxCell id="0" />
        <mxCell id="1" parent="0" />
        <mxCell id="dZfeglvte216Bx80sz5y-131" style="edgeStyle=orthogonalEdgeStyle;rounded=0;orthogonalLoop=1;jettySize=auto;html=1;exitX=0.25;exitY=1;exitDx=0;exitDy=0;entryX=0.5;entryY=0;entryDx=0;entryDy=0;endArrow=none;endFill=0;startArrow=ERmandOne;startFill=0;" parent="1" source="dZfeglvte216Bx80sz5y-1" target="dZfeglvte216Bx80sz5y-130" edge="1">
          <mxGeometry relative="1" as="geometry">
            <Array as="points">
              <mxPoint x="-100" y="140" />
            </Array>
          </mxGeometry>
        </mxCell>
        <mxCell id="6D6ECbLCiUqLHoUFoQ9B-78" style="edgeStyle=orthogonalEdgeStyle;rounded=0;orthogonalLoop=1;jettySize=auto;html=1;exitX=1;exitY=0.75;exitDx=0;exitDy=0;endArrow=none;endFill=0;" parent="1" source="dZfeglvte216Bx80sz5y-1" target="dZfeglvte216Bx80sz5y-3" edge="1">
          <mxGeometry relative="1" as="geometry">
            <Array as="points">
              <mxPoint x="280" y="-45" />
            </Array>
          </mxGeometry>
        </mxCell>
        <mxCell id="dZfeglvte216Bx80sz5y-1" value="User" style="rounded=0;whiteSpace=wrap;html=1;" parent="1" vertex="1">
          <mxGeometry x="-130" y="-90" width="120" height="60" as="geometry" />
        </mxCell>
        <mxCell id="dZfeglvte216Bx80sz5y-9" style="edgeStyle=orthogonalEdgeStyle;rounded=0;orthogonalLoop=1;jettySize=auto;html=1;exitX=0.5;exitY=0;exitDx=0;exitDy=0;endArrow=none;endFill=0;entryX=1;entryY=0.75;entryDx=0;entryDy=0;" parent="1" source="dZfeglvte216Bx80sz5y-2" target="dZfeglvte216Bx80sz5y-1" edge="1">
          <mxGeometry relative="1" as="geometry">
            <Array as="points">
              <mxPoint x="520" y="-45" />
            </Array>
          </mxGeometry>
        </mxCell>
        <mxCell id="dZfeglvte216Bx80sz5y-2" value="Name" style="ellipse;whiteSpace=wrap;html=1;" parent="1" vertex="1">
          <mxGeometry x="460" y="-10" width="120" height="80" as="geometry" />
        </mxCell>
        <mxCell id="dZfeglvte216Bx80sz5y-3" value="&lt;u&gt;ID&lt;/u&gt;" style="ellipse;whiteSpace=wrap;html=1;" parent="1" vertex="1">
          <mxGeometry x="220" y="-150" width="120" height="80" as="geometry" />
        </mxCell>
        <mxCell id="Mn52vAff-rX5zDL7jaZr-45" style="edgeStyle=orthogonalEdgeStyle;rounded=0;orthogonalLoop=1;jettySize=auto;html=1;exitX=0.5;exitY=0;exitDx=0;exitDy=0;entryX=1;entryY=0.75;entryDx=0;entryDy=0;startArrow=none;startFill=0;endArrow=none;endFill=0;" parent="1" source="dZfeglvte216Bx80sz5y-4" target="dZfeglvte216Bx80sz5y-1" edge="1">
          <mxGeometry relative="1" as="geometry" />
        </mxCell>
        <mxCell id="dZfeglvte216Bx80sz5y-4" value="Birth_date" style="ellipse;whiteSpace=wrap;html=1;" parent="1" vertex="1">
          <mxGeometry x="-20" y="-10" width="120" height="80" as="geometry" />
        </mxCell>
        <mxCell id="Mn52vAff-rX5zDL7jaZr-71" style="edgeStyle=orthogonalEdgeStyle;rounded=0;orthogonalLoop=1;jettySize=auto;html=1;exitX=0.5;exitY=1;exitDx=0;exitDy=0;entryX=1;entryY=0.25;entryDx=0;entryDy=0;startArrow=none;startFill=0;endArrow=none;endFill=0;" parent="1" source="dZfeglvte216Bx80sz5y-16" target="dZfeglvte216Bx80sz5y-17" edge="1">
          <mxGeometry relative="1" as="geometry">
            <Array as="points">
              <mxPoint x="300" y="295" />
            </Array>
          </mxGeometry>
        </mxCell>
        <mxCell id="dZfeglvte216Bx80sz5y-16" value="&lt;u&gt;ID&lt;/u&gt;" style="ellipse;whiteSpace=wrap;html=1;" parent="1" vertex="1">
          <mxGeometry x="240" y="200" width="120" height="80" as="geometry" />
        </mxCell>
        <mxCell id="6D6ECbLCiUqLHoUFoQ9B-86" style="edgeStyle=orthogonalEdgeStyle;rounded=0;orthogonalLoop=1;jettySize=auto;html=1;exitX=0.25;exitY=0;exitDx=0;exitDy=0;entryX=0.5;entryY=1;entryDx=0;entryDy=0;endArrow=none;endFill=0;startArrow=ERzeroToOne;startFill=0;" parent="1" source="dZfeglvte216Bx80sz5y-17" target="6D6ECbLCiUqLHoUFoQ9B-84" edge="1">
          <mxGeometry relative="1" as="geometry">
            <Array as="points">
              <mxPoint x="-100" y="250" />
              <mxPoint x="-208" y="250" />
            </Array>
          </mxGeometry>
        </mxCell>
        <mxCell id="dZfeglvte216Bx80sz5y-17" value="media" style="rounded=0;whiteSpace=wrap;html=1;" parent="1" vertex="1">
          <mxGeometry x="-130" y="280" width="120" height="60" as="geometry" />
        </mxCell>
        <mxCell id="Mn52vAff-rX5zDL7jaZr-73" style="edgeStyle=orthogonalEdgeStyle;rounded=0;orthogonalLoop=1;jettySize=auto;html=1;exitX=0.5;exitY=1;exitDx=0;exitDy=0;entryX=1;entryY=0.25;entryDx=0;entryDy=0;startArrow=none;startFill=0;endArrow=none;endFill=0;" parent="1" source="dZfeglvte216Bx80sz5y-18" target="dZfeglvte216Bx80sz5y-17" edge="1">
          <mxGeometry relative="1" as="geometry">
            <Array as="points">
              <mxPoint x="60" y="295" />
            </Array>
          </mxGeometry>
        </mxCell>
        <mxCell id="dZfeglvte216Bx80sz5y-18" value="data" style="ellipse;whiteSpace=wrap;html=1;" parent="1" vertex="1">
          <mxGeometry y="200" width="120" height="80" as="geometry" />
        </mxCell>
        <mxCell id="Mn52vAff-rX5zDL7jaZr-98" style="edgeStyle=orthogonalEdgeStyle;rounded=0;orthogonalLoop=1;jettySize=auto;html=1;exitX=0.5;exitY=1;exitDx=0;exitDy=0;entryX=1;entryY=0.25;entryDx=0;entryDy=0;startArrow=none;startFill=0;endArrow=none;endFill=0;" parent="1" source="dZfeglvte216Bx80sz5y-24" target="dZfeglvte216Bx80sz5y-17" edge="1">
          <mxGeometry relative="1" as="geometry">
            <Array as="points">
              <mxPoint x="180" y="295" />
            </Array>
          </mxGeometry>
        </mxCell>
        <mxCell id="dZfeglvte216Bx80sz5y-24" value="visibility" style="ellipse;whiteSpace=wrap;html=1;" parent="1" vertex="1">
          <mxGeometry x="120" y="200" width="120" height="80" as="geometry" />
        </mxCell>
        <mxCell id="6D6ECbLCiUqLHoUFoQ9B-79" style="edgeStyle=orthogonalEdgeStyle;rounded=0;orthogonalLoop=1;jettySize=auto;html=1;exitX=0.5;exitY=1;exitDx=0;exitDy=0;entryX=1;entryY=0.75;entryDx=0;entryDy=0;endArrow=none;endFill=0;" parent="1" source="dZfeglvte216Bx80sz5y-34" target="dZfeglvte216Bx80sz5y-1" edge="1">
          <mxGeometry relative="1" as="geometry" />
        </mxCell>
        <mxCell id="dZfeglvte216Bx80sz5y-34" value="password" style="ellipse;whiteSpace=wrap;html=1;" parent="1" vertex="1">
          <mxGeometry x="460" y="-150" width="120" height="80" as="geometry" />
        </mxCell>
        <mxCell id="Mn52vAff-rX5zDL7jaZr-44" style="edgeStyle=orthogonalEdgeStyle;rounded=0;orthogonalLoop=1;jettySize=auto;html=1;exitX=0.5;exitY=0;exitDx=0;exitDy=0;entryX=1;entryY=0.75;entryDx=0;entryDy=0;startArrow=none;startFill=0;endArrow=none;endFill=0;" parent="1" source="dZfeglvte216Bx80sz5y-36" target="dZfeglvte216Bx80sz5y-1" edge="1">
          <mxGeometry relative="1" as="geometry" />
        </mxCell>
        <mxCell id="dZfeglvte216Bx80sz5y-36" value="registered_date" style="ellipse;whiteSpace=wrap;html=1;" parent="1" vertex="1">
          <mxGeometry x="100" y="-10" width="120" height="80" as="geometry" />
        </mxCell>
        <mxCell id="dZfeglvte216Bx80sz5y-52" style="edgeStyle=orthogonalEdgeStyle;rounded=0;orthogonalLoop=1;jettySize=auto;html=1;exitX=0.5;exitY=1;exitDx=0;exitDy=0;endArrow=none;endFill=0;entryX=0.5;entryY=0;entryDx=0;entryDy=0;" parent="1" source="dZfeglvte216Bx80sz5y-44" target="dZfeglvte216Bx80sz5y-51" edge="1">
          <mxGeometry relative="1" as="geometry" />
        </mxCell>
        <mxCell id="UAhE1bvouWM0LQ9jqx9I-11" style="edgeStyle=orthogonalEdgeStyle;rounded=0;orthogonalLoop=1;jettySize=auto;html=1;entryX=0;entryY=0.5;entryDx=0;entryDy=0;startArrow=ERmandOne;startFill=0;endArrow=none;endFill=0;exitX=0.75;exitY=0;exitDx=0;exitDy=0;" parent="1" source="dZfeglvte216Bx80sz5y-44" target="UAhE1bvouWM0LQ9jqx9I-10" edge="1">
          <mxGeometry relative="1" as="geometry">
            <Array as="points">
              <mxPoint x="-75" y="510" />
              <mxPoint x="320" y="510" />
              <mxPoint x="320" y="430" />
            </Array>
          </mxGeometry>
        </mxCell>
        <mxCell id="dZfeglvte216Bx80sz5y-44" value="thread" style="rounded=0;whiteSpace=wrap;html=1;" parent="1" vertex="1">
          <mxGeometry x="-165" y="540" width="120" height="60" as="geometry" />
        </mxCell>
        <mxCell id="Mn52vAff-rX5zDL7jaZr-59" style="edgeStyle=orthogonalEdgeStyle;rounded=0;orthogonalLoop=1;jettySize=auto;html=1;exitX=0.5;exitY=1;exitDx=0;exitDy=0;entryX=0.5;entryY=1;entryDx=0;entryDy=0;startArrow=none;startFill=0;endArrow=none;endFill=0;" parent="1" source="dZfeglvte216Bx80sz5y-45" target="dZfeglvte216Bx80sz5y-44" edge="1">
          <mxGeometry relative="1" as="geometry">
            <Array as="points">
              <mxPoint x="-410" y="630" />
              <mxPoint x="-105" y="630" />
            </Array>
          </mxGeometry>
        </mxCell>
        <mxCell id="dZfeglvte216Bx80sz5y-45" value="&lt;u&gt;ID&lt;/u&gt;" style="ellipse;whiteSpace=wrap;html=1;" parent="1" vertex="1">
          <mxGeometry x="-469.5" y="530" width="120" height="80" as="geometry" />
        </mxCell>
        <mxCell id="Mn52vAff-rX5zDL7jaZr-58" style="edgeStyle=orthogonalEdgeStyle;rounded=0;orthogonalLoop=1;jettySize=auto;html=1;exitX=0.5;exitY=0;exitDx=0;exitDy=0;entryX=0.5;entryY=1;entryDx=0;entryDy=0;startArrow=none;startFill=0;endArrow=none;endFill=0;" parent="1" source="dZfeglvte216Bx80sz5y-47" target="dZfeglvte216Bx80sz5y-44" edge="1">
          <mxGeometry relative="1" as="geometry" />
        </mxCell>
        <mxCell id="dZfeglvte216Bx80sz5y-47" value="name" style="ellipse;whiteSpace=wrap;html=1;" parent="1" vertex="1">
          <mxGeometry x="-109.5" y="660" width="120" height="80" as="geometry" />
        </mxCell>
        <mxCell id="Mn52vAff-rX5zDL7jaZr-107" style="edgeStyle=orthogonalEdgeStyle;rounded=0;orthogonalLoop=1;jettySize=auto;html=1;exitX=0.5;exitY=0;exitDx=0;exitDy=0;entryX=0.5;entryY=1;entryDx=0;entryDy=0;startArrow=none;startFill=0;endArrow=none;endFill=0;" parent="1" source="dZfeglvte216Bx80sz5y-49" target="dZfeglvte216Bx80sz5y-44" edge="1">
          <mxGeometry relative="1" as="geometry" />
        </mxCell>
        <mxCell id="dZfeglvte216Bx80sz5y-49" value="created_date" style="ellipse;whiteSpace=wrap;html=1;" parent="1" vertex="1">
          <mxGeometry x="-469.5" y="660" width="120" height="80" as="geometry" />
        </mxCell>
        <mxCell id="dZfeglvte216Bx80sz5y-51" value="status" style="ellipse;whiteSpace=wrap;html=1;" parent="1" vertex="1">
          <mxGeometry x="-349.5" y="660" width="120" height="80" as="geometry" />
        </mxCell>
        <mxCell id="Mn52vAff-rX5zDL7jaZr-100" style="edgeStyle=orthogonalEdgeStyle;rounded=0;orthogonalLoop=1;jettySize=auto;html=1;exitX=0.75;exitY=0;exitDx=0;exitDy=0;entryX=0;entryY=0.5;entryDx=0;entryDy=0;startArrow=ERzeroToMany;startFill=0;endArrow=none;endFill=0;" parent="1" source="dZfeglvte216Bx80sz5y-53" target="Mn52vAff-rX5zDL7jaZr-99" edge="1">
          <mxGeometry relative="1" as="geometry">
            <Array as="points">
              <mxPoint x="383" y="500" />
            </Array>
          </mxGeometry>
        </mxCell>
        <mxCell id="dZfeglvte216Bx80sz5y-53" value="comment" style="rounded=0;whiteSpace=wrap;html=1;" parent="1" vertex="1">
          <mxGeometry x="293" y="650" width="120" height="60" as="geometry" />
        </mxCell>
        <mxCell id="Mn52vAff-rX5zDL7jaZr-47" style="edgeStyle=orthogonalEdgeStyle;rounded=0;orthogonalLoop=1;jettySize=auto;html=1;exitX=0.5;exitY=1;exitDx=0;exitDy=0;entryX=1;entryY=0.5;entryDx=0;entryDy=0;startArrow=none;startFill=0;endArrow=none;endFill=0;" parent="1" source="dZfeglvte216Bx80sz5y-54" target="dZfeglvte216Bx80sz5y-53" edge="1">
          <mxGeometry relative="1" as="geometry">
            <Array as="points">
              <mxPoint x="610" y="680" />
            </Array>
          </mxGeometry>
        </mxCell>
        <mxCell id="dZfeglvte216Bx80sz5y-54" value="&lt;u&gt;ID&lt;/u&gt;" style="ellipse;whiteSpace=wrap;html=1;" parent="1" vertex="1">
          <mxGeometry x="550" y="585" width="120" height="80" as="geometry" />
        </mxCell>
        <mxCell id="Mn52vAff-rX5zDL7jaZr-54" style="edgeStyle=orthogonalEdgeStyle;rounded=0;orthogonalLoop=1;jettySize=auto;html=1;exitX=0.5;exitY=1;exitDx=0;exitDy=0;entryX=1;entryY=0.5;entryDx=0;entryDy=0;startArrow=none;startFill=0;endArrow=none;endFill=0;" parent="1" source="dZfeglvte216Bx80sz5y-56" target="dZfeglvte216Bx80sz5y-53" edge="1">
          <mxGeometry relative="1" as="geometry">
            <Array as="points">
              <mxPoint x="490" y="680" />
            </Array>
          </mxGeometry>
        </mxCell>
        <mxCell id="dZfeglvte216Bx80sz5y-56" value="created_date" style="ellipse;whiteSpace=wrap;html=1;" parent="1" vertex="1">
          <mxGeometry x="430" y="585" width="120" height="80" as="geometry" />
        </mxCell>
        <mxCell id="Mn52vAff-rX5zDL7jaZr-46" style="edgeStyle=orthogonalEdgeStyle;rounded=0;orthogonalLoop=1;jettySize=auto;html=1;exitX=0.5;exitY=0;exitDx=0;exitDy=0;entryX=1;entryY=0.5;entryDx=0;entryDy=0;startArrow=none;startFill=0;endArrow=none;endFill=0;" parent="1" source="dZfeglvte216Bx80sz5y-58" target="dZfeglvte216Bx80sz5y-53" edge="1">
          <mxGeometry relative="1" as="geometry">
            <mxPoint x="663" y="700" as="sourcePoint" />
          </mxGeometry>
        </mxCell>
        <mxCell id="dZfeglvte216Bx80sz5y-58" value="last_modifly_date" style="ellipse;whiteSpace=wrap;html=1;" parent="1" vertex="1">
          <mxGeometry x="550" y="700" width="120" height="80" as="geometry" />
        </mxCell>
        <mxCell id="Mn52vAff-rX5zDL7jaZr-48" style="edgeStyle=orthogonalEdgeStyle;rounded=0;orthogonalLoop=1;jettySize=auto;html=1;exitX=0.5;exitY=0;exitDx=0;exitDy=0;entryX=1;entryY=0.5;entryDx=0;entryDy=0;startArrow=none;startFill=0;endArrow=none;endFill=0;" parent="1" source="dZfeglvte216Bx80sz5y-60" target="dZfeglvte216Bx80sz5y-53" edge="1">
          <mxGeometry relative="1" as="geometry">
            <mxPoint x="543" y="700" as="sourcePoint" />
          </mxGeometry>
        </mxCell>
        <mxCell id="dZfeglvte216Bx80sz5y-60" value="content" style="ellipse;whiteSpace=wrap;html=1;" parent="1" vertex="1">
          <mxGeometry x="430" y="700" width="120" height="80" as="geometry" />
        </mxCell>
        <mxCell id="Mn52vAff-rX5zDL7jaZr-28" style="edgeStyle=orthogonalEdgeStyle;rounded=0;orthogonalLoop=1;jettySize=auto;html=1;exitX=0.5;exitY=1;exitDx=0;exitDy=0;startArrow=none;startFill=0;endArrow=none;endFill=0;" parent="1" source="dZfeglvte216Bx80sz5y-72" edge="1">
          <mxGeometry relative="1" as="geometry">
            <mxPoint x="-10" y="-45" as="targetPoint" />
            <Array as="points">
              <mxPoint x="640" y="-45" />
            </Array>
          </mxGeometry>
        </mxCell>
        <mxCell id="dZfeglvte216Bx80sz5y-72" value="email" style="ellipse;whiteSpace=wrap;html=1;" parent="1" vertex="1">
          <mxGeometry x="580" y="-150" width="120" height="80" as="geometry" />
        </mxCell>
        <mxCell id="Mn52vAff-rX5zDL7jaZr-29" style="edgeStyle=orthogonalEdgeStyle;rounded=0;orthogonalLoop=1;jettySize=auto;html=1;exitX=0.5;exitY=0;exitDx=0;exitDy=0;entryX=1;entryY=0.75;entryDx=0;entryDy=0;startArrow=none;startFill=0;endArrow=none;endFill=0;" parent="1" source="dZfeglvte216Bx80sz5y-74" target="dZfeglvte216Bx80sz5y-1" edge="1">
          <mxGeometry relative="1" as="geometry" />
        </mxCell>
        <mxCell id="dZfeglvte216Bx80sz5y-74" value="email_verified" style="ellipse;whiteSpace=wrap;html=1;" parent="1" vertex="1">
          <mxGeometry x="580" y="-10" width="120" height="80" as="geometry" />
        </mxCell>
        <mxCell id="dZfeglvte216Bx80sz5y-77" value="tag" style="rounded=0;whiteSpace=wrap;html=1;" parent="1" vertex="1">
          <mxGeometry x="-420" y="280" width="120" height="60" as="geometry" />
        </mxCell>
        <mxCell id="dZfeglvte216Bx80sz5y-79" style="edgeStyle=orthogonalEdgeStyle;rounded=0;orthogonalLoop=1;jettySize=auto;html=1;exitX=1;exitY=0.5;exitDx=0;exitDy=0;endArrow=none;endFill=0;entryX=0;entryY=0.5;entryDx=0;entryDy=0;" parent="1" source="dZfeglvte216Bx80sz5y-78" target="dZfeglvte216Bx80sz5y-77" edge="1">
          <mxGeometry relative="1" as="geometry">
            <Array as="points">
              <mxPoint x="-510" y="310" />
            </Array>
          </mxGeometry>
        </mxCell>
        <mxCell id="dZfeglvte216Bx80sz5y-78" value="name" style="ellipse;whiteSpace=wrap;html=1;" parent="1" vertex="1">
          <mxGeometry x="-570" y="270" width="120" height="80" as="geometry" />
        </mxCell>
        <mxCell id="Mn52vAff-rX5zDL7jaZr-88" style="edgeStyle=orthogonalEdgeStyle;rounded=0;orthogonalLoop=1;jettySize=auto;html=1;exitX=0.5;exitY=1;exitDx=0;exitDy=0;startArrow=none;startFill=0;endArrow=none;endFill=0;entryX=1;entryY=0.75;entryDx=0;entryDy=0;" parent="1" source="dZfeglvte216Bx80sz5y-86" target="dZfeglvte216Bx80sz5y-1" edge="1">
          <mxGeometry relative="1" as="geometry">
            <mxPoint x="10" y="-50" as="targetPoint" />
            <Array as="points">
              <mxPoint x="40" y="-45" />
            </Array>
          </mxGeometry>
        </mxCell>
        <mxCell id="dZfeglvte216Bx80sz5y-86" value="profile_&lt;br&gt;visibility" style="ellipse;whiteSpace=wrap;html=1;" parent="1" vertex="1">
          <mxGeometry x="-20" y="-160" width="120" height="80" as="geometry" />
        </mxCell>
        <mxCell id="Mn52vAff-rX5zDL7jaZr-78" style="edgeStyle=orthogonalEdgeStyle;rounded=0;orthogonalLoop=1;jettySize=auto;html=1;startArrow=none;startFill=0;endArrow=none;endFill=0;entryX=1;entryY=0.75;entryDx=0;entryDy=0;exitX=0.5;exitY=1;exitDx=0;exitDy=0;" parent="1" source="dZfeglvte216Bx80sz5y-88" target="dZfeglvte216Bx80sz5y-1" edge="1">
          <mxGeometry relative="1" as="geometry">
            <mxPoint x="-370" y="-10" as="targetPoint" />
            <Array as="points">
              <mxPoint x="160" y="-45" />
            </Array>
          </mxGeometry>
        </mxCell>
        <mxCell id="dZfeglvte216Bx80sz5y-88" value="profile_&lt;br&gt;description" style="ellipse;whiteSpace=wrap;html=1;" parent="1" vertex="1">
          <mxGeometry x="100" y="-150" width="120" height="80" as="geometry" />
        </mxCell>
        <mxCell id="dZfeglvte216Bx80sz5y-132" style="edgeStyle=orthogonalEdgeStyle;rounded=0;orthogonalLoop=1;jettySize=auto;html=1;exitX=0.5;exitY=1;exitDx=0;exitDy=0;endArrow=ERzeroToMany;endFill=0;" parent="1" source="dZfeglvte216Bx80sz5y-130" target="dZfeglvte216Bx80sz5y-17" edge="1">
          <mxGeometry relative="1" as="geometry">
            <Array as="points">
              <mxPoint x="-100" y="230" />
              <mxPoint x="-70" y="230" />
            </Array>
          </mxGeometry>
        </mxCell>
        <mxCell id="dZfeglvte216Bx80sz5y-130" value="uploads" style="rhombus;whiteSpace=wrap;html=1;" parent="1" vertex="1">
          <mxGeometry x="-140" y="140" width="80" height="80" as="geometry" />
        </mxCell>
        <mxCell id="dZfeglvte216Bx80sz5y-134" style="edgeStyle=orthogonalEdgeStyle;rounded=0;orthogonalLoop=1;jettySize=auto;html=1;exitX=1;exitY=0.5;exitDx=0;exitDy=0;entryX=0;entryY=0.5;entryDx=0;entryDy=0;endArrow=ERoneToMany;endFill=0;" parent="1" source="dZfeglvte216Bx80sz5y-133" target="dZfeglvte216Bx80sz5y-17" edge="1">
          <mxGeometry relative="1" as="geometry">
            <Array as="points">
              <mxPoint x="-200" y="310" />
              <mxPoint x="-200" y="310" />
            </Array>
          </mxGeometry>
        </mxCell>
        <mxCell id="dZfeglvte216Bx80sz5y-135" style="edgeStyle=orthogonalEdgeStyle;rounded=0;orthogonalLoop=1;jettySize=auto;html=1;exitX=0;exitY=0.5;exitDx=0;exitDy=0;entryX=1;entryY=0.5;entryDx=0;entryDy=0;endArrow=ERoneToMany;endFill=0;startArrow=none;startFill=0;" parent="1" source="dZfeglvte216Bx80sz5y-133" target="dZfeglvte216Bx80sz5y-77" edge="1">
          <mxGeometry relative="1" as="geometry" />
        </mxCell>
        <mxCell id="dZfeglvte216Bx80sz5y-133" value="has" style="rhombus;whiteSpace=wrap;html=1;" parent="1" vertex="1">
          <mxGeometry x="-260" y="270" width="80" height="80" as="geometry" />
        </mxCell>
        <mxCell id="Mn52vAff-rX5zDL7jaZr-70" style="edgeStyle=orthogonalEdgeStyle;rounded=0;orthogonalLoop=1;jettySize=auto;html=1;exitX=0.5;exitY=1;exitDx=0;exitDy=0;startArrow=none;startFill=0;endArrow=none;endFill=0;entryX=1;entryY=0.25;entryDx=0;entryDy=0;" parent="1" source="6D6ECbLCiUqLHoUFoQ9B-5" target="dZfeglvte216Bx80sz5y-17" edge="1">
          <mxGeometry relative="1" as="geometry">
            <mxPoint x="-10" y="310" as="targetPoint" />
            <Array as="points">
              <mxPoint x="420" y="295" />
            </Array>
          </mxGeometry>
        </mxCell>
        <mxCell id="6D6ECbLCiUqLHoUFoQ9B-5" value="deleted" style="ellipse;whiteSpace=wrap;html=1;" parent="1" vertex="1">
          <mxGeometry x="360" y="200" width="120" height="80" as="geometry" />
        </mxCell>
        <mxCell id="6D6ECbLCiUqLHoUFoQ9B-40" style="edgeStyle=orthogonalEdgeStyle;rounded=0;orthogonalLoop=1;jettySize=auto;html=1;exitX=0;exitY=0.5;exitDx=0;exitDy=0;entryX=1;entryY=0.5;entryDx=0;entryDy=0;endArrow=ERmandOne;endFill=0;startArrow=none;startFill=0;" parent="1" source="6D6ECbLCiUqLHoUFoQ9B-17" target="dZfeglvte216Bx80sz5y-44" edge="1">
          <mxGeometry relative="1" as="geometry">
            <Array as="points">
              <mxPoint x="-17" y="570" />
              <mxPoint x="-17" y="570" />
            </Array>
          </mxGeometry>
        </mxCell>
        <mxCell id="Mn52vAff-rX5zDL7jaZr-56" style="edgeStyle=orthogonalEdgeStyle;rounded=0;orthogonalLoop=1;jettySize=auto;html=1;exitX=1;exitY=0.5;exitDx=0;exitDy=0;entryX=0.25;entryY=0;entryDx=0;entryDy=0;startArrow=none;startFill=0;endArrow=ERzeroToOne;endFill=0;" parent="1" source="6D6ECbLCiUqLHoUFoQ9B-17" target="dZfeglvte216Bx80sz5y-53" edge="1">
          <mxGeometry relative="1" as="geometry">
            <Array as="points">
              <mxPoint x="323" y="570" />
            </Array>
          </mxGeometry>
        </mxCell>
        <mxCell id="6D6ECbLCiUqLHoUFoQ9B-17" value="has" style="rhombus;whiteSpace=wrap;html=1;" parent="1" vertex="1">
          <mxGeometry x="80" y="530" width="80" height="80" as="geometry" />
        </mxCell>
        <mxCell id="6D6ECbLCiUqLHoUFoQ9B-38" style="edgeStyle=orthogonalEdgeStyle;rounded=0;orthogonalLoop=1;jettySize=auto;html=1;endArrow=ERzeroToMany;endFill=0;startArrow=none;startFill=0;entryX=0.5;entryY=0;entryDx=0;entryDy=0;exitX=0.5;exitY=1;exitDx=0;exitDy=0;" parent="1" source="6D6ECbLCiUqLHoUFoQ9B-30" target="dZfeglvte216Bx80sz5y-44" edge="1">
          <mxGeometry relative="1" as="geometry">
            <Array as="points" />
            <mxPoint x="-110" y="820" as="targetPoint" />
            <mxPoint x="-105" y="490" as="sourcePoint" />
          </mxGeometry>
        </mxCell>
        <mxCell id="UAhE1bvouWM0LQ9jqx9I-7" style="edgeStyle=orthogonalEdgeStyle;rounded=0;orthogonalLoop=1;jettySize=auto;html=1;exitX=0.5;exitY=0;exitDx=0;exitDy=0;startArrow=none;startFill=0;endArrow=ERmandOne;endFill=0;entryX=0.5;entryY=1;entryDx=0;entryDy=0;" parent="1" source="6D6ECbLCiUqLHoUFoQ9B-30" target="dZfeglvte216Bx80sz5y-17" edge="1">
          <mxGeometry relative="1" as="geometry">
            <Array as="points">
              <mxPoint x="-105" y="370" />
              <mxPoint x="-70" y="370" />
            </Array>
            <mxPoint x="-40" y="380" as="targetPoint" />
          </mxGeometry>
        </mxCell>
        <mxCell id="6D6ECbLCiUqLHoUFoQ9B-30" value="has" style="rhombus;whiteSpace=wrap;html=1;" parent="1" vertex="1">
          <mxGeometry x="-145" y="390" width="80" height="80" as="geometry" />
        </mxCell>
        <mxCell id="6D6ECbLCiUqLHoUFoQ9B-39" style="edgeStyle=orthogonalEdgeStyle;rounded=0;orthogonalLoop=1;jettySize=auto;html=1;exitX=0.5;exitY=1;exitDx=0;exitDy=0;endArrow=none;endFill=0;" parent="1" source="dZfeglvte216Bx80sz5y-49" target="dZfeglvte216Bx80sz5y-49" edge="1">
          <mxGeometry relative="1" as="geometry" />
        </mxCell>
        <mxCell id="24BG95UsTLRzvMyq7Aou-2" style="edgeStyle=orthogonalEdgeStyle;rounded=0;orthogonalLoop=1;jettySize=auto;html=1;exitX=0.5;exitY=0;exitDx=0;exitDy=0;entryX=0.5;entryY=1;entryDx=0;entryDy=0;startArrow=none;startFill=0;endArrow=none;endFill=0;" parent="1" source="6D6ECbLCiUqLHoUFoQ9B-62" target="6D6ECbLCiUqLHoUFoQ9B-17" edge="1">
          <mxGeometry relative="1" as="geometry" />
        </mxCell>
        <mxCell id="6D6ECbLCiUqLHoUFoQ9B-62" value="count" style="ellipse;whiteSpace=wrap;html=1;dashed=1;" parent="1" vertex="1">
          <mxGeometry x="60" y="640" width="120" height="80" as="geometry" />
        </mxCell>
        <mxCell id="Mn52vAff-rX5zDL7jaZr-63" style="edgeStyle=orthogonalEdgeStyle;rounded=0;orthogonalLoop=1;jettySize=auto;html=1;exitX=0.5;exitY=1;exitDx=0;exitDy=0;entryX=0.5;entryY=1;entryDx=0;entryDy=0;startArrow=none;startFill=0;endArrow=none;endFill=0;" parent="1" source="6D6ECbLCiUqLHoUFoQ9B-64" target="dZfeglvte216Bx80sz5y-44" edge="1">
          <mxGeometry relative="1" as="geometry">
            <Array as="points">
              <mxPoint x="-290" y="630" />
              <mxPoint x="-105" y="630" />
            </Array>
          </mxGeometry>
        </mxCell>
        <mxCell id="6D6ECbLCiUqLHoUFoQ9B-64" value="last_activity_date" style="ellipse;whiteSpace=wrap;html=1;" parent="1" vertex="1">
          <mxGeometry x="-349.5" y="530" width="120" height="80" as="geometry" />
        </mxCell>
        <mxCell id="6D6ECbLCiUqLHoUFoQ9B-85" style="edgeStyle=orthogonalEdgeStyle;rounded=0;orthogonalLoop=1;jettySize=auto;html=1;exitX=0.5;exitY=0;exitDx=0;exitDy=0;endArrow=ERzeroToOne;endFill=0;entryX=0;entryY=0.5;entryDx=0;entryDy=0;" parent="1" source="6D6ECbLCiUqLHoUFoQ9B-84" target="dZfeglvte216Bx80sz5y-1" edge="1">
          <mxGeometry relative="1" as="geometry">
            <mxPoint x="-400" y="20" as="targetPoint" />
            <Array as="points">
              <mxPoint x="-208" y="50" />
              <mxPoint x="-210" y="50" />
              <mxPoint x="-210" y="-60" />
            </Array>
          </mxGeometry>
        </mxCell>
        <mxCell id="6D6ECbLCiUqLHoUFoQ9B-84" value="has_&lt;br&gt;avatar_&lt;br&gt;pic" style="rhombus;whiteSpace=wrap;html=1;" parent="1" vertex="1">
          <mxGeometry x="-248" y="110" width="80" height="80" as="geometry" />
        </mxCell>
        <mxCell id="6D6ECbLCiUqLHoUFoQ9B-92" style="edgeStyle=orthogonalEdgeStyle;rounded=0;orthogonalLoop=1;jettySize=auto;html=1;exitX=0.5;exitY=0;exitDx=0;exitDy=0;endArrow=none;endFill=0;entryX=1;entryY=0.75;entryDx=0;entryDy=0;" parent="1" source="6D6ECbLCiUqLHoUFoQ9B-90" target="dZfeglvte216Bx80sz5y-1" edge="1">
          <mxGeometry relative="1" as="geometry">
            <mxPoint x="-50" y="-130" as="targetPoint" />
            <Array as="points">
              <mxPoint x="760" y="-45" />
            </Array>
          </mxGeometry>
        </mxCell>
        <mxCell id="6D6ECbLCiUqLHoUFoQ9B-90" value="last_online" style="ellipse;whiteSpace=wrap;html=1;" parent="1" vertex="1">
          <mxGeometry x="700" y="-10" width="120" height="80" as="geometry" />
        </mxCell>
        <mxCell id="UAhE1bvouWM0LQ9jqx9I-9" style="edgeStyle=orthogonalEdgeStyle;rounded=0;orthogonalLoop=1;jettySize=auto;html=1;exitX=0.5;exitY=0;exitDx=0;exitDy=0;entryX=1;entryY=0.75;entryDx=0;entryDy=0;startArrow=none;startFill=0;endArrow=none;endFill=0;" parent="1" source="UAhE1bvouWM0LQ9jqx9I-8" target="dZfeglvte216Bx80sz5y-1" edge="1">
          <mxGeometry relative="1" as="geometry">
            <Array as="points">
              <mxPoint x="400" y="-45" />
            </Array>
          </mxGeometry>
        </mxCell>
        <mxCell id="UAhE1bvouWM0LQ9jqx9I-8" value="type" style="ellipse;whiteSpace=wrap;html=1;" parent="1" vertex="1">
          <mxGeometry x="340" y="-10" width="120" height="80" as="geometry" />
        </mxCell>
        <mxCell id="UAhE1bvouWM0LQ9jqx9I-12" style="edgeStyle=orthogonalEdgeStyle;rounded=0;orthogonalLoop=1;jettySize=auto;html=1;exitX=0.5;exitY=0;exitDx=0;exitDy=0;entryX=0.5;entryY=1;entryDx=0;entryDy=0;startArrow=none;startFill=0;endArrow=ERmandOne;endFill=0;" parent="1" source="UAhE1bvouWM0LQ9jqx9I-10" target="dZfeglvte216Bx80sz5y-1" edge="1">
          <mxGeometry relative="1" as="geometry">
            <Array as="points">
              <mxPoint x="513" y="130" />
              <mxPoint x="-70" y="130" />
            </Array>
          </mxGeometry>
        </mxCell>
        <mxCell id="UAhE1bvouWM0LQ9jqx9I-10" value="has" style="rhombus;whiteSpace=wrap;html=1;" parent="1" vertex="1">
          <mxGeometry x="473" y="390" width="80" height="80" as="geometry" />
        </mxCell>
        <mxCell id="UAhE1bvouWM0LQ9jqx9I-25" style="edgeStyle=orthogonalEdgeStyle;rounded=0;orthogonalLoop=1;jettySize=auto;html=1;exitX=0.5;exitY=0;exitDx=0;exitDy=0;entryX=0.5;entryY=1;entryDx=0;entryDy=0;startArrow=none;startFill=0;endArrow=none;endFill=0;" parent="1" source="UAhE1bvouWM0LQ9jqx9I-24" target="dZfeglvte216Bx80sz5y-44" edge="1">
          <mxGeometry relative="1" as="geometry" />
        </mxCell>
        <mxCell id="UAhE1bvouWM0LQ9jqx9I-24" value="deleted" style="ellipse;whiteSpace=wrap;html=1;" parent="1" vertex="1">
          <mxGeometry x="-229.5" y="660" width="120" height="80" as="geometry" />
        </mxCell>
        <mxCell id="UAhE1bvouWM0LQ9jqx9I-60" style="edgeStyle=orthogonalEdgeStyle;rounded=0;orthogonalLoop=1;jettySize=auto;html=1;exitX=0.5;exitY=1;exitDx=0;exitDy=0;entryX=1;entryY=0.75;entryDx=0;entryDy=0;startArrow=none;startFill=0;endArrow=none;endFill=0;" parent="1" source="UAhE1bvouWM0LQ9jqx9I-59" target="dZfeglvte216Bx80sz5y-1" edge="1">
          <mxGeometry relative="1" as="geometry">
            <Array as="points">
              <mxPoint x="400" y="-45" />
            </Array>
          </mxGeometry>
        </mxCell>
        <mxCell id="UAhE1bvouWM0LQ9jqx9I-59" value="deleted" style="ellipse;whiteSpace=wrap;html=1;" parent="1" vertex="1">
          <mxGeometry x="340" y="-150" width="120" height="80" as="geometry" />
        </mxCell>
        <mxCell id="Mn52vAff-rX5zDL7jaZr-43" style="edgeStyle=orthogonalEdgeStyle;rounded=0;orthogonalLoop=1;jettySize=auto;html=1;exitX=0.5;exitY=0;exitDx=0;exitDy=0;entryX=1;entryY=0.75;entryDx=0;entryDy=0;startArrow=none;startFill=0;endArrow=none;endFill=0;" parent="1" source="UAhE1bvouWM0LQ9jqx9I-61" target="dZfeglvte216Bx80sz5y-1" edge="1">
          <mxGeometry relative="1" as="geometry" />
        </mxCell>
        <mxCell id="UAhE1bvouWM0LQ9jqx9I-61" value="banned" style="ellipse;whiteSpace=wrap;html=1;" parent="1" vertex="1">
          <mxGeometry x="220" y="-10" width="120" height="80" as="geometry" />
        </mxCell>
        <mxCell id="Mn52vAff-rX5zDL7jaZr-102" style="edgeStyle=orthogonalEdgeStyle;rounded=0;orthogonalLoop=1;jettySize=auto;html=1;exitX=0.5;exitY=0;exitDx=0;exitDy=0;entryX=0.75;entryY=1;entryDx=0;entryDy=0;startArrow=none;startFill=0;endArrow=ERmandOne;endFill=0;" parent="1" source="Mn52vAff-rX5zDL7jaZr-99" target="dZfeglvte216Bx80sz5y-1" edge="1">
          <mxGeometry relative="1" as="geometry">
            <Array as="points">
              <mxPoint x="593" y="100" />
              <mxPoint x="-40" y="100" />
            </Array>
          </mxGeometry>
        </mxCell>
        <mxCell id="Mn52vAff-rX5zDL7jaZr-99" value="has" style="rhombus;whiteSpace=wrap;html=1;" parent="1" vertex="1">
          <mxGeometry x="553" y="460" width="80" height="80" as="geometry" />
        </mxCell>
        <mxCell id="-5fK-wkunYE34qFGGVz6-3" style="edgeStyle=orthogonalEdgeStyle;rounded=0;orthogonalLoop=1;jettySize=auto;html=1;exitX=0.5;exitY=0;exitDx=0;exitDy=0;endArrow=none;endFill=0;entryX=1;entryY=0.25;entryDx=0;entryDy=0;" parent="1" source="-5fK-wkunYE34qFGGVz6-1" target="dZfeglvte216Bx80sz5y-17" edge="1">
          <mxGeometry relative="1" as="geometry">
            <mxPoint x="50" y="300" as="targetPoint" />
            <Array as="points">
              <mxPoint x="420" y="295" />
            </Array>
          </mxGeometry>
        </mxCell>
        <mxCell id="-5fK-wkunYE34qFGGVz6-1" value="description" style="ellipse;whiteSpace=wrap;html=1;" parent="1" vertex="1">
          <mxGeometry x="360" y="320" width="120" height="80" as="geometry" />
        </mxCell>
        <mxCell id="-5fK-wkunYE34qFGGVz6-5" style="edgeStyle=orthogonalEdgeStyle;rounded=0;orthogonalLoop=1;jettySize=auto;html=1;exitX=0.5;exitY=0;exitDx=0;exitDy=0;entryX=1;entryY=0.25;entryDx=0;entryDy=0;endArrow=none;endFill=0;" parent="1" source="-5fK-wkunYE34qFGGVz6-4" target="dZfeglvte216Bx80sz5y-17" edge="1">
          <mxGeometry relative="1" as="geometry" />
        </mxCell>
        <mxCell id="-5fK-wkunYE34qFGGVz6-4" value="placeholder_text" style="ellipse;whiteSpace=wrap;html=1;" parent="1" vertex="1">
          <mxGeometry y="320" width="120" height="80" as="geometry" />
        </mxCell>
        <mxCell id="lCp2x-4ndeQ_BiEkId_Q-3" style="edgeStyle=none;rounded=0;orthogonalLoop=1;jettySize=auto;html=1;exitX=0.5;exitY=0;exitDx=0;exitDy=0;entryX=1;entryY=0.25;entryDx=0;entryDy=0;startArrow=none;startFill=0;endArrow=none;endFill=0;" parent="1" source="lCp2x-4ndeQ_BiEkId_Q-1" target="dZfeglvte216Bx80sz5y-17" edge="1">
          <mxGeometry relative="1" as="geometry">
            <Array as="points">
              <mxPoint x="180" y="295" />
            </Array>
          </mxGeometry>
        </mxCell>
        <mxCell id="lCp2x-4ndeQ_BiEkId_Q-1" value="uploaded" style="ellipse;whiteSpace=wrap;html=1;" parent="1" vertex="1">
          <mxGeometry x="120" y="320" width="120" height="80" as="geometry" />
        </mxCell>
        <mxCell id="lCp2x-4ndeQ_BiEkId_Q-4" style="edgeStyle=none;rounded=0;orthogonalLoop=1;jettySize=auto;html=1;exitX=0.5;exitY=0;exitDx=0;exitDy=0;entryX=1;entryY=0.25;entryDx=0;entryDy=0;startArrow=none;startFill=0;endArrow=none;endFill=0;" parent="1" source="lCp2x-4ndeQ_BiEkId_Q-2" target="dZfeglvte216Bx80sz5y-17" edge="1">
          <mxGeometry relative="1" as="geometry">
            <Array as="points">
              <mxPoint x="300" y="295" />
            </Array>
          </mxGeometry>
        </mxCell>
        <mxCell id="lCp2x-4ndeQ_BiEkId_Q-2" value="last_modified" style="ellipse;whiteSpace=wrap;html=1;" parent="1" vertex="1">
          <mxGeometry x="240" y="320" width="120" height="80" as="geometry" />
        </mxCell>
        <mxCell id="24BG95UsTLRzvMyq7Aou-4" style="edgeStyle=orthogonalEdgeStyle;rounded=0;orthogonalLoop=1;jettySize=auto;html=1;exitX=1;exitY=0.5;exitDx=0;exitDy=0;entryX=0;entryY=0.5;entryDx=0;entryDy=0;startArrow=none;startFill=0;endArrow=none;endFill=0;" parent="1" source="24BG95UsTLRzvMyq7Aou-3" target="6D6ECbLCiUqLHoUFoQ9B-84" edge="1">
          <mxGeometry relative="1" as="geometry" />
        </mxCell>
        <mxCell id="24BG95UsTLRzvMyq7Aou-3" value="default" style="ellipse;whiteSpace=wrap;html=1;" parent="1" vertex="1">
          <mxGeometry x="-430" y="110" width="120" height="80" as="geometry" />
        </mxCell>
        <mxCell id="Ofb9ZHng59T90bCMY7J4-2" style="edgeStyle=orthogonalEdgeStyle;rounded=0;orthogonalLoop=1;jettySize=auto;html=1;exitX=0.5;exitY=1;exitDx=0;exitDy=0;entryX=1;entryY=0.75;entryDx=0;entryDy=0;endArrow=none;endFill=0;" parent="1" source="Ofb9ZHng59T90bCMY7J4-1" target="dZfeglvte216Bx80sz5y-1" edge="1">
          <mxGeometry relative="1" as="geometry" />
        </mxCell>
        <mxCell id="Ofb9ZHng59T90bCMY7J4-1" value="gender" style="ellipse;whiteSpace=wrap;html=1;" parent="1" vertex="1">
          <mxGeometry x="700" y="-150" width="120" height="80" as="geometry" />
        </mxCell>
        <mxCell id="HOrq6qjOH3Sm1NuLAuk3-2" style="edgeStyle=orthogonalEdgeStyle;rounded=0;orthogonalLoop=1;jettySize=auto;html=1;exitX=0.5;exitY=0;exitDx=0;exitDy=0;endArrow=none;endFill=0;" parent="1" source="HOrq6qjOH3Sm1NuLAuk3-1" target="dZfeglvte216Bx80sz5y-77" edge="1">
          <mxGeometry relative="1" as="geometry" />
        </mxCell>
        <mxCell id="HOrq6qjOH3Sm1NuLAuk3-1" value="&lt;u&gt;ID&lt;/u&gt;" style="ellipse;whiteSpace=wrap;html=1;" parent="1" vertex="1">
          <mxGeometry x="-420" y="360" width="120" height="80" as="geometry" />
        </mxCell>
      </root>
    </mxGraphModel>
  </diagram>
</mxfile>
